<svg height="18.776" viewBox="0 0 18.776 18.776" width="18.776" xmlns="http://www.w3.org/2000/svg" xmlns:xlink="http://www.w3.org/1999/xlink"><linearGradient id="a" gradientUnits="objectBoundingBox" x1=".5" x2=".5" y2="1"><stop offset="0" stop-color="#6abc7b"/><stop offset="1" stop-color="#499559"/></linearGradient><path d="m18.509 46.709a.353.353 0 0 0 -.16-.04.42.42 0 0 0 -.307.133l-.854.853a.4.4 0 0 0 -.12.293v3.387a2.139 2.139 0 0 1 -2.133 2.134h-11.095a2.055 2.055 0 0 1 -1.507-.627 2.054 2.054 0 0 1 -.627-1.507v-11.094a2.055 2.055 0 0 1 .627-1.507 2.054 2.054 0 0 1 1.507-.627h11.095a2.369 2.369 0 0 1 .6.08.429.429 0 0 0 .12.027.421.421 0 0 0 .307-.133l.653-.653a.414.414 0 0 0 .12-.387.4.4 0 0 0 -.24-.307 3.671 3.671 0 0 0 -1.56-.333h-11.095a3.7 3.7 0 0 0 -2.714 1.127 3.7 3.7 0 0 0 -1.126 2.714v11.094a3.7 3.7 0 0 0 1.127 2.714 3.7 3.7 0 0 0 2.714 1.127h11.094a3.848 3.848 0 0 0 3.841-3.841v-4.236a.387.387 0 0 0 -.267-.391z" fill="url(#a)" transform="translate(0 -36.401)"/></svg>