<svg xmlns="http://www.w3.org/2000/svg" width="19.985" height="19.011" viewBox="0 0 19.985 19.011">
  <path id="Path" d="M18.291,1.607a5.634,5.634,0,0,0-7.882,0L1.225,10.792A4.3,4.3,0,0,0,7.31,16.877l8.316-8.316a2.768,2.768,0,0,0-3.915-3.915L3.756,12.6a.723.723,0,0,0,1.023,1.023l7.955-7.955a1.323,1.323,0,0,1,1.87,1.87L6.287,15.854a2.856,2.856,0,0,1-4.04-4.04l9.184-9.184a4.19,4.19,0,0,1,5.926,5.924L8.174,17.739a.723.723,0,1,0,1.02,1.02l9.184-9.184A5.634,5.634,0,0,0,18.291,1.607Z" transform="translate(0 0)" fill="#6f8e9d"/>
</svg>
