<svg height="364.632" viewBox="0 0 456 364.632" width="456" xmlns="http://www.w3.org/2000/svg" xmlns:xlink="http://www.w3.org/1999/xlink"><linearGradient id="a" gradientUnits="objectBoundingBox" x1=".5" x2=".5" y2="1"><stop offset="0" stop-color="#6abc7b"/><stop offset="1" stop-color="#499559"/></linearGradient><linearGradient id="b" gradientUnits="objectBoundingBox" x1=".5" x2=".5" y2="1"><stop offset="0" stop-color="#37a0f7"/><stop offset="1" stop-color="#3879bb"/></linearGradient><path d="m376.188 461.014a3.971 3.971 0 0 0 -5.427-1.441l-.153.088a3.97 3.97 0 1 0 3.985 6.868l.153-.088a3.971 3.971 0 0 0 1.442-5.427z" fill="#499559" transform="translate(-96.259 -276.768)"/><path d="m189.677 50.857a101.624 101.624 0 0 0 -186.17 24.509 101.642 101.642 0 0 0 134.514 121.218 3.97 3.97 0 0 0 -2.849-7.412 93.082 93.082 0 0 1 -89.572-12.31l3.557-18.569 1.714-.557a12.367 12.367 0 0 0 7.929-15.564l-1.256-3.872a4.384 4.384 0 0 1 0-2.738 12.353 12.353 0 0 0 -9.364-15.972l-8.962-1.751-17.291-13.147a3.971 3.971 0 0 0 -3.63-.616l-10.124 3.289a93.605 93.605 0 0 1 -.013-10.842c.4.372.66.625.82.791a4.162 4.162 0 0 0 3.878 1.986 57.673 57.673 0 0 0 7.116-.81c3.35-.5 6.682-1.053 6.715-1.059a3.97 3.97 0 0 0 2.624-6.152l-4.868-7.141 6.973-4.986a3.974 3.974 0 0 0 1.135-1.252l10.81-18.871 4.357-4.669a16.772 16.772 0 0 0 3.236-17.787 18.261 18.261 0 0 0 -7.233-8.519 93.564 93.564 0 0 1 56.859-20.039l-7.09 8.894-26.292 9.217a3.969 3.969 0 0 0 -2.357 2.232l-7.343 17.8a3.971 3.971 0 0 0 .439 3.821l10.725 15.021a37.737 37.737 0 0 0 -4.816 5.976c-.783 1.111-1.522 2.161-2.033 2.749-.444.512-.889 1.013-1.33 1.508a37.157 37.157 0 0 0 -6.385 8.867 23.66 23.66 0 0 0 1.964 23.919 22.285 22.285 0 0 0 21.036 9.027 30.917 30.917 0 0 0 3.879-.782c3.4-.842 4.482-.926 5.574.1.531.5.58.592.569 2.279a15.434 15.434 0 0 0 .354 3.935 12.546 12.546 0 0 0 3.356 5.481 8.9 8.9 0 0 1 1.44 1.837c1.238 2.968.7 4.611-.482 8.213q-.152.462-.308.945c-1.8 5.557.707 11.069 2.915 15.932.717 1.579 1.394 3.07 1.838 4.387 3.57 10.593 6.246 13.02 8.394 14a8.275 8.275 0 0 0 3.465.735c5.724 0 11.7-5.315 14.44-8.684a12.2 12.2 0 0 0 2.457-5.781 6.33 6.33 0 0 1 .508-1.774 10.4 10.4 0 0 1 1.3-1.675 13.774 13.774 0 0 0 3.248-5.394c.652-2.054 1.126-2.557 2.695-4.228.273-.29.564-.6.877-.941 5.289-5.755 3.927-10.151 2.484-14.805-1.214-3.916.909-6.421 6.043-11.2a42.888 42.888 0 0 0 6.3-6.789c.778-1.127 3.146-4.555 1.681-7.952-1.436-3.331-5.086-3.891-8.019-4.341a13.157 13.157 0 0 1 -3.466-.81c-2.457-1.606-3.96-4.958-5.413-8.2-.289-.645-.575-1.282-.864-1.9-.516-1.1-1.032-2.438-1.578-3.85-1.445-3.739-3.082-7.977-5.869-10.931-2.505-2.654-7.227-3.933-11.394-5.061-1.4-.379-2.724-.737-3.6-1.059a3.965 3.965 0 0 0 -2.281-.141 10.3 10.3 0 0 0 -4.232 1.752 4.932 4.932 0 0 0 -1.414 1.9 45.413 45.413 0 0 1 -4.683-2.85l-.077-.051a5.629 5.629 0 0 0 -.337-3.833c-2.218-4.692-9.581-4.324-11.033-4.2-.825.069-1.869.106-2.973.145-1.734.062-3.651.131-5.548.343l.1-.272a10.152 10.152 0 0 1 9.533-6.707h2.257a3.97 3.97 0 1 0 0-7.941h-2.265a18.124 18.124 0 0 0 -15.371 8.572l-5.922-8.3 5.828-14.12 25.694-9.007a3.972 3.972 0 0 0 1.791-1.272l11.418-14.325a93.635 93.635 0 0 1 72.392 46.4 92.657 92.657 0 0 1 9.356 22.727l-1.683 1.5a10.605 10.605 0 0 0 -3.534 7.715v.1l-2.74-7.545a9.912 9.912 0 0 0 -1.788-3.067l-4.891-5.727a9.95 9.95 0 0 0 -7.576-3.493h-5.987a5.75 5.75 0 0 0 -4.785 8.941l.606.91a44 44 0 0 1 -13.109 7.785l-8.207-15.721v-3.507a3.968 3.968 0 0 0 -1.229-2.872l-7.391-7.055a3.975 3.975 0 0 0 -1.425-.874l-6.658-2.343a3.97 3.97 0 1 0 -2.633 7.491l5.846 2.055 5.544 5.292v2.783a3.971 3.971 0 0 0 .451 1.838l10.275 19.681a3.969 3.969 0 0 0 4.893 1.888l2.992-1.1a51.962 51.962 0 0 0 18.632-11.928 3.97 3.97 0 0 0 .5-5.01l-.211-.317h1.9a2.021 2.021 0 0 1 1.539.71l4.892 5.727a2.017 2.017 0 0 1 .363.623l5.4 14.844a3.97 3.97 0 0 0 6.538 1.45l2.569-2.569a12.4 12.4 0 0 0 3.283-5.97 94.022 94.022 0 0 1 -34.919 85.512 3.97 3.97 0 1 0 4.9 6.246 101.643 101.643 0 0 0 25.163-130.689zm-170.903 61.413 16.372 12.448a3.966 3.966 0 0 0 1.642.736l9.868 1.928a4.412 4.412 0 0 1 3.346 5.7 12.273 12.273 0 0 0 -.011 7.666l1.258 3.871a4.417 4.417 0 0 1 -2.833 5.559l-3.946 1.282a3.969 3.969 0 0 0 -2.672 3.029l-3.176 16.577a94.732 94.732 0 0 1 -18.087-22.561 93.19 93.19 0 0 1 -11.535-33.059zm23.14-63.328-4.671 5a3.987 3.987 0 0 0 -.543.736l-10.606 18.522-9.427 6.741a3.97 3.97 0 0 0 -.971 5.466l3.526 5.171c-2.032.3-3.856.552-5.069.684-.233-.224-.477-.45-.729-.685-.944-.877-2.255-2.048-4.211-3.759a93.848 93.848 0 0 1 27.968-53.11 10.324 10.324 0 0 1 6.434 5.892 8.811 8.811 0 0 1 -1.701 9.342zm32.373 21.7c1.771-1 5.881-1.142 8.882-1.249 1.2-.042 2.339-.083 3.354-.168a10.8 10.8 0 0 1 1.692.007 3.97 3.97 0 0 0 1.827 4.94c.745.4 1.782 1.09 2.879 1.822 3.1 2.069 6.621 4.413 9.925 4.624a6.589 6.589 0 0 0 5.393-2.247c.057-.058.111-.116.168-.169a4.254 4.254 0 0 0 1.063-1.3c.635.181 1.3.362 1.986.548 2.351.637 6.727 1.821 7.694 2.846 1.717 1.821 3.056 5.286 4.237 8.343.6 1.545 1.161 3 1.793 4.355.272.58.539 1.178.81 1.783 1.832 4.087 3.909 8.719 8.314 11.6a16.413 16.413 0 0 0 6.607 2.013c.261.04.561.086.865.136a38.4 38.4 0 0 1 -5.038 5.286c-4.915 4.577-11.033 10.275-8.215 19.363 1.33 4.292 1.392 4.755-.746 7.081-.291.317-.563.606-.818.877a16.315 16.315 0 0 0 -4.475 7.262 6.2 6.2 0 0 1 -1.617 2.524 17.728 17.728 0 0 0 -2.221 2.941 12.867 12.867 0 0 0 -1.437 4.218 4.861 4.861 0 0 1 -.829 2.328 23.146 23.146 0 0 1 -5.013 4.432 6.551 6.551 0 0 1 -3.327 1.325c-.424-.454-1.958-2.443-4.277-9.326-.572-1.7-1.365-3.445-2.132-5.135-1.691-3.725-3.439-7.576-2.589-10.208q.151-.466.3-.91c1.359-4.141 2.641-8.052.265-13.746a14.319 14.319 0 0 0 -2.891-4.119 7.381 7.381 0 0 1 -1.516-2.019 8.584 8.584 0 0 1 -.13-2.009c.013-2.075.034-5.21-3.082-8.128-4.394-4.113-9.518-2.846-12.909-2.007a24.908 24.908 0 0 1 -2.9.6 14.264 14.264 0 0 1 -13.667-5.777 15.72 15.72 0 0 1 -1.232-15.89 30.147 30.147 0 0 1 5.14-6.98c.461-.519.926-1.042 1.392-1.578.774-.893 1.626-2.1 2.527-3.381 1.076-1.527 3.079-4.37 3.948-4.911z" fill="url(#a)" transform="translate(126 -.001)"/><path d="m373.923 328.863-1.91-7.2a3.97 3.97 0 0 0 -7.327-.875c-.435.8-.827 1.652-1.206 2.473a17.061 17.061 0 0 1 -1.982 3.6 8.766 8.766 0 0 1 -2.331 1.382c-2.286 1.1-5.417 2.614-6.613 6.427a11.632 11.632 0 0 0 -.263 5.6 3.614 3.614 0 0 1 -.1 2.34l-.04.093c-1.264 2.966-3.615 8.487-.318 13.181 2.353 3.35 4.826 4.211 6.749 4.211a6.439 6.439 0 0 0 1.059-.085c4.05-.662 7.095-4.875 9.583-13.259l4.67-15.74a3.969 3.969 0 0 0 .029-2.148zm-12.314 15.63c-1.268 4.275-2.39 6.27-3.038 7.155-.075-.1-.156-.2-.242-.327-.759-1.081.375-3.743 1.126-5.5l.04-.093a11.173 11.173 0 0 0 .651-6.615 4.163 4.163 0 0 1 -.016-2.061c.156-.5 1.086-.976 2.488-1.652.621-.3 1.306-.63 2-1.03z" fill="#499559" transform="translate(-85.117 -192.162)"/><path d="m261.6 118.377-.268-.094a3.97 3.97 0 0 0 -2.628 7.493l.268.094a3.97 3.97 0 1 0 2.629-7.493z" fill="#499559" transform="translate(-28.377 -71.182)"/><g fill="url(#b)"><path d="m398.169-803.7a111.984 111.984 0 0 1 -4.089 24.2c-1.587 5.772-2.213 12.843-1.876 21.31.481 11.4 1.732 14.96 8.755 24.148.962 1.2 6.494 6.879 7.985 8.178l1.106.962-.818-1.3a43.1 43.1 0 0 1 -5.965-15.3c-.673-3.271-.866-6.3-.866-15.393 0-11.785.144-12.94 2.934-26.7 2.309-11.593 2.357-17.413.144-21.646a11.713 11.713 0 0 0 -6.013-5.243c-1.008-.29-1.008-.146-1.297 6.784z" transform="translate(-295.036 936.865)"/><path d="m363.9-796.285c-.1.385-.962 2.934-1.828 5.724-.914 2.79-1.972 5.917-2.405 6.975-.385 1.058-1.924 5.724-3.367 10.342-5.917 18.616-6.109 19.53-5.869 29.583.144 6.35.385 7.745 2.309 14.479 1.251 4.329 5.2 11.593 8.947 16.307 4.522 5.772 16.451 16.066 22.753 19.674 8.61 4.955 13.709 6.879 22.127 8.514a193.52 193.52 0 0 1 35.5 10.871c1.2.529 3.127 1.347 4.329 1.828 3.8 1.587 16.884 8.37 19.1 9.909a7.892 7.892 0 0 0 2.261 1.3 32.966 32.966 0 0 0 .818-3.752 44.42 44.42 0 0 0 -.481-17.076c-.866-3.656-4.906-13.9-5.772-14.671-.144-.144-1.347-1.876-2.694-3.848-5.243-7.841-10.438-11.689-27.371-20.4-4.474-2.309-8.947-4.714-9.957-5.388a12.887 12.887 0 0 0 -2.116-1.154c-.289 0-6.686-4.185-7.937-5.147-.385-.337-1.587-1.251-2.646-2.069s-5.676-5.2-10.246-9.669c-9.284-9.091-8.755-8.9-9.476-3.271-.818 6.494 3.271 16.6 9.717 24.051 4.474 5.2 14.383 13.9 19.049 16.74a6.27 6.27 0 0 1 1.78 1.347c0 .529-10.631-.289-13.9-1.058-11.689-2.742-15.345-4.185-21.935-8.61-8.177-5.484-13.757-13.709-16.644-24.581-1.01-3.8-1.154-5.388-1.154-13.469a76.835 76.835 0 0 1 .625-12.026c.385-1.587 1.3-5.676 2.068-9.091a87.672 87.672 0 0 0 1.732-9.139c.337-3.7-.818-8.514-2.646-10.823-.722-.914-1.4-1.828-1.539-2.02-.532-.767-2.889-1.007-3.132-.382z" transform="translate(-273.373 929.639)"/><path d="m907.994-809.605c-5.628 3.608-6.734 9.621-4.185 22.608 3.223 16.6 3.848 21.406 3.848 30.5a70.92 70.92 0 0 1 -2.164 18.423c-.818 3.464-2.549 7.937-3.319 8.466-.289.192-.337.385-.144.385s-.289 1.01-1.155 2.261c-1.491 2.261-1.491 2.261 1.924-1.058 7.7-7.408 12.218-14.383 13.709-20.925 1.732-7.793 1.347-21.983-.818-30.353-1.154-4.281-2.549-11.064-3.656-17.51a70.279 70.279 0 0 1 -.577-8.562c-.048-3.944-.241-5.628-.625-5.628a10.783 10.783 0 0 0 -2.838 1.393z" transform="translate(-558.574 937.091)"/><path d="m833.146-795.621c-3.944 3.7-4.858 9.813-2.79 19.1.721 3.175 1.491 6.542 1.732 7.456a97.133 97.133 0 0 1 1.924 15.633 84.172 84.172 0 0 1 -1.491 13.95 50.258 50.258 0 0 1 -8.37 17.029 48.211 48.211 0 0 1 -17.943 12.747c-7.215 2.742-18.856 4.907-24.051 4.522l-2.117-.144 5.869-4.329c7.119-5.243 15.682-13.9 18.953-19.145 3.9-6.205 5.2-9.909 5.435-15.489.192-3.463.048-5.243-.385-6.35l-.673-1.491-8.9 8.659c-4.906 4.81-10.2 9.669-11.785 10.871-3.992 2.934-12.459 7.889-21.887 12.7-13.036 6.734-17.028 9.332-21.165 13.709-4.041 4.233-6.109 7.36-9.332 13.95-4.714 9.669-6.013 17.943-4.329 27.226l.77 4.233 1.155-.77c.625-.385 2.165-1.3 3.415-1.972 1.251-.722 2.549-1.443 2.79-1.635.289-.241 2.982-1.635 6.013-3.175a201.755 201.755 0 0 1 47.622-16.451c10.583-2.213 16.211-4.522 25.013-10.39 11.978-7.937 21.117-17.413 26.072-26.986 5.917-11.5 7.119-26.553 3.175-39.444-1.732-5.628-6.638-20.732-9.188-28.285-2.646-7.797-2.934-8.134-5.532-5.729z" transform="translate(-470.979 929.793)"/></g><text fill="#3879bb" font-family="HalogenFlare-Bold" font-size="32" font-weight="700" transform="translate(0 312.632)"><tspan x="0" y="0">Healing Ambassadors</tspan></text><text fill="#499559" font-family="FreestyleScript-Regular, Freestyle Script" font-size="37" transform="translate(80 352.632)"><tspan x="0" y="0">Serving … healing … changing</tspan></text></svg>