<svg height="41.525" viewBox="0 0 46.646 41.525" width="46.646" xmlns="http://www.w3.org/2000/svg"><g fill="#fff"><path d="m369.8 459.341a.613.613 0 0 0 -.838-.223l-.024.014a.613.613 0 1 0 .615 1.06l.024-.014a.613.613 0 0 0 .223-.837z" transform="translate(-338.387 -430.9)"/><path d="m29.28 7.851a15.687 15.687 0 0 0 -28.738 3.784 15.69 15.69 0 0 0 20.764 18.711.613.613 0 0 0 -.44-1.144 14.369 14.369 0 0 1 -13.827-1.902l.549-2.866.265-.086a1.909 1.909 0 0 0 1.224-2.4l-.194-.6a.677.677 0 0 1 0-.423 1.907 1.907 0 0 0 -1.446-2.466l-1.383-.27-2.669-2.027a.613.613 0 0 0 -.56-.1l-1.563.508a14.449 14.449 0 0 1 0-1.673c.062.057.1.1.127.122a.642.642 0 0 0 .6.307 8.9 8.9 0 0 0 1.1-.125c.517-.076 1.031-.163 1.037-.163a.613.613 0 0 0 .405-.95l-.752-1.1 1.076-.77a.613.613 0 0 0 .175-.194l1.664-2.911.673-.721a2.589 2.589 0 0 0 .5-2.746 2.819 2.819 0 0 0 -1.117-1.315 14.443 14.443 0 0 1 8.777-3.093l-1.095 1.373-4.058 1.423a.613.613 0 0 0 -.364.345l-1.134 2.747a.613.613 0 0 0 .068.59l1.656 2.319a5.825 5.825 0 0 0 -.743.923c-.121.172-.235.334-.314.424s-.137.156-.205.233a5.736 5.736 0 0 0 -.986 1.368 3.652 3.652 0 0 0 .3 3.692 3.44 3.44 0 0 0 3.248 1.393 4.772 4.772 0 0 0 .6-.121c.525-.13.692-.143.86.015.082.077.09.091.088.352a2.382 2.382 0 0 0 .055.607 1.937 1.937 0 0 0 .518.846 1.374 1.374 0 0 1 .222.284 1.526 1.526 0 0 1 -.074 1.268l-.048.146a3.44 3.44 0 0 0 .45 2.459c.111.244.215.474.284.677.551 1.635.964 2.01 1.3 2.161a1.277 1.277 0 0 0 .535.114 3.427 3.427 0 0 0 2.229-1.34 1.884 1.884 0 0 0 .379-.892.977.977 0 0 1 .078-.274 1.606 1.606 0 0 1 .2-.259 2.126 2.126 0 0 0 .5-.833 1.349 1.349 0 0 1 .416-.653l.135-.145a1.965 1.965 0 0 0 .383-2.285c-.187-.6.14-.991.933-1.729a6.62 6.62 0 0 0 .973-1.048 1.323 1.323 0 0 0 .259-1.228c-.222-.514-.785-.6-1.238-.67a2.031 2.031 0 0 1 -.535-.125 2.9 2.9 0 0 1 -.836-1.266c-.045-.1-.089-.2-.133-.293-.08-.17-.159-.376-.244-.594a5.142 5.142 0 0 0 -.906-1.687 3.915 3.915 0 0 0 -1.759-.781c-.216-.059-.42-.114-.555-.164a.612.612 0 0 0 -.352-.022 1.59 1.59 0 0 0 -.653.27.761.761 0 0 0 -.218.294 7.01 7.01 0 0 1 -.723-.44l-.012-.008a.869.869 0 0 0 -.055-.59c-.342-.724-1.479-.668-1.7-.648-.127.011-.289.016-.459.022-.268.01-.564.02-.856.053l.015-.042a1.567 1.567 0 0 1 1.472-1.035h.348a.613.613 0 1 0 0-1.226h-.348a2.8 2.8 0 0 0 -2.375 1.322l-.914-1.28.9-2.18 3.961-1.391a.613.613 0 0 0 .276-.2l1.768-2.209a14.454 14.454 0 0 1 11.174 7.164 14.3 14.3 0 0 1 1.444 3.508l-.26.232a1.637 1.637 0 0 0 -.545 1.191s0 .01 0 .015l-.423-1.164a1.53 1.53 0 0 0 -.276-.473l-.755-.884a1.536 1.536 0 0 0 -1.17-.539h-.924a.888.888 0 0 0 -.739 1.38l.094.14a6.793 6.793 0 0 1 -2.024 1.2l-1.267-2.427v-.543a.613.613 0 0 0 -.19-.443l-1.14-1.086a.614.614 0 0 0 -.22-.135l-1.023-.361a.613.613 0 1 0 -.406 1.156l.9.317.856.817v.43a.613.613 0 0 0 .07.284l1.58 3.038a.613.613 0 0 0 .755.291l.462-.17a8.021 8.021 0 0 0 2.883-1.838.613.613 0 0 0 .077-.773l-.033-.049h.293a.312.312 0 0 1 .238.11l.755.884a.311.311 0 0 1 .056.1l.833 2.291a.613.613 0 0 0 1.009.224l.4-.4a1.913 1.913 0 0 0 .507-.921 14.514 14.514 0 0 1 -5.389 13.2.613.613 0 1 0 .757.964 15.69 15.69 0 0 0 3.877-20.179zm-26.38 9.48 2.527 1.922a.612.612 0 0 0 .253.114l1.523.3a.681.681 0 0 1 .516.881 1.9 1.9 0 0 0 0 1.183l.194.6a.682.682 0 0 1 -.437.858l-.609.2a.613.613 0 0 0 -.413.468l-.49 2.559a14.623 14.623 0 0 1 -2.794-3.49 14.385 14.385 0 0 1 -1.781-5.1zm3.57-9.775-.721.772a.615.615 0 0 0 -.084.114l-1.637 2.858-1.455 1.041a.613.613 0 0 0 -.15.844l.544.8c-.314.047-.6.085-.782.106l-.113-.106c-.146-.135-.348-.316-.65-.58a14.487 14.487 0 0 1 4.318-8.205 1.594 1.594 0 0 1 .993.909 1.36 1.36 0 0 1 -.263 1.447zm5 3.349a3.93 3.93 0 0 1 1.371-.193c.186-.007.361-.013.518-.026a1.667 1.667 0 0 1 .261 0 .613.613 0 0 0 .282.763c.115.062.275.168.444.281a3.532 3.532 0 0 0 1.532.714 1.017 1.017 0 0 0 .833-.347l.026-.026a.657.657 0 0 0 .164-.2l.307.085a4.081 4.081 0 0 1 1.188.439 4.351 4.351 0 0 1 .654 1.288c.092.238.179.464.277.672.042.09.083.182.125.275a3.828 3.828 0 0 0 1.283 1.79 2.534 2.534 0 0 0 1.02.311l.133.021a5.927 5.927 0 0 1 -.778.816c-.759.707-1.7 1.586-1.268 2.989.205.662.215.734-.115 1.093l-.126.135a2.519 2.519 0 0 0 -.691 1.121.957.957 0 0 1 -.25.39 2.737 2.737 0 0 0 -.343.454 1.986 1.986 0 0 0 -.222.651.75.75 0 0 1 -.128.359 3.573 3.573 0 0 1 -.774.684 1.011 1.011 0 0 1 -.514.2 4.373 4.373 0 0 1 -.66-1.44c-.088-.262-.211-.532-.329-.793a2.628 2.628 0 0 1 -.4-1.576l.046-.141a2.677 2.677 0 0 0 .041-2.122 2.21 2.21 0 0 0 -.446-.636 1.139 1.139 0 0 1 -.234-.311 1.325 1.325 0 0 1 -.02-.31 1.52 1.52 0 0 0 -.476-1.255 1.974 1.974 0 0 0 -1.993-.31 3.845 3.845 0 0 1 -.447.093 2.2 2.2 0 0 1 -2.11-.892 2.427 2.427 0 0 1 -.19-2.453 4.654 4.654 0 0 1 .794-1.077c.071-.08.143-.161.215-.244.12-.138.251-.324.39-.522a4.431 4.431 0 0 1 .608-.75z" transform="translate(7.648 -.001)"/><path d="m353.82 320.279-.295-1.111a.613.613 0 0 0 -1.131-.135c-.067.124-.128.255-.186.382a2.634 2.634 0 0 1 -.306.556 1.354 1.354 0 0 1 -.36.213 1.685 1.685 0 0 0 -1.021.992 1.8 1.8 0 0 0 -.041.865.558.558 0 0 1 -.016.361l-.006.014a2.063 2.063 0 0 0 -.049 2.035 1.277 1.277 0 0 0 1.042.65 1 1 0 0 0 .163-.013c.625-.1 1.1-.753 1.479-2.047l.721-2.43a.613.613 0 0 0 .006-.332zm-1.9 2.413a3.718 3.718 0 0 1 -.469 1.1c-.012-.015-.024-.031-.037-.05-.117-.167.058-.578.174-.85l.006-.014a1.725 1.725 0 0 0 .1-1.021.642.642 0 0 1 0-.318c.024-.076.168-.151.384-.255.1-.046.2-.1.308-.159z" transform="translate(-321.04 -299.177)"/><path d="m256.9 118.108-.041-.014a.613.613 0 1 0 -.406 1.157l.041.014a.613.613 0 1 0 .406-1.157z" transform="translate(-232.702 -110.823)"/><path d="m393.051-809.506a17.286 17.286 0 0 1 -.631 3.735 10.916 10.916 0 0 0 -.29 3.289 5.116 5.116 0 0 0 1.351 3.728c.148.186 1 1.062 1.233 1.262l.171.148-.126-.2a6.653 6.653 0 0 1 -.921-2.361 11.306 11.306 0 0 1 -.134-2.376 14.528 14.528 0 0 1 .453-4.121c.356-1.79.364-2.688.022-3.341a1.808 1.808 0 0 0 -.928-.809c-.151-.048-.151-.023-.2 1.046z" transform="translate(-389.017 830.061)"/><path d="m352.461-796.586c-.015.059-.149.453-.282.884s-.3.913-.371 1.077-.3.884-.52 1.6c-.913 2.874-.943 3.015-.906 4.567a6.56 6.56 0 0 0 .356 2.235 8.891 8.891 0 0 0 1.381 2.517 16.7 16.7 0 0 0 3.512 3.037 9.619 9.619 0 0 0 3.416 1.314 29.871 29.871 0 0 1 5.48 1.678c.186.082.483.208.668.282.587.245 2.606 1.292 2.948 1.53a1.216 1.216 0 0 0 .349.2 5.086 5.086 0 0 0 .126-.579 6.858 6.858 0 0 0 -.074-2.636 11.936 11.936 0 0 0 -.891-2.265c-.022-.022-.208-.29-.416-.594-.809-1.21-1.611-1.8-4.225-3.148-.691-.356-1.381-.728-1.537-.832a1.987 1.987 0 0 0 -.327-.178c-.045 0-1.032-.646-1.225-.794-.059-.052-.245-.193-.408-.319s-.876-.8-1.582-1.492c-1.433-1.4-1.351-1.374-1.463-.5a5.561 5.561 0 0 0 1.5 3.713 17.463 17.463 0 0 0 2.94 2.584.966.966 0 0 1 .275.208 9.275 9.275 0 0 1 -2.146-.163 8.288 8.288 0 0 1 -3.385-1.34 6.332 6.332 0 0 1 -2.569-3.794 6.529 6.529 0 0 1 -.178-2.079 11.859 11.859 0 0 1 .1-1.856c.059-.245.2-.876.319-1.4a13.525 13.525 0 0 0 .267-1.411 2.687 2.687 0 0 0 -.408-1.671c-.111-.141-.215-.282-.238-.312-.085-.123-.447-.16-.486-.063z" transform="translate(-350.373 817.171)"/><path d="m901.17-810.785c-.869.557-1.04 1.485-.646 3.49a20.812 20.812 0 0 1 .594 4.708 10.948 10.948 0 0 1 -.334 2.844 3.966 3.966 0 0 1 -.512 1.307c-.045.03-.052.059-.022.059s-.044.156-.178.349c-.23.349-.23.349.3-.163a6.864 6.864 0 0 0 2.116-3.23 12.337 12.337 0 0 0 -.126-4.685c-.178-.661-.394-1.708-.564-2.7a10.85 10.85 0 0 1 -.089-1.322c-.007-.609-.037-.869-.1-.869a1.664 1.664 0 0 0 -.439.212z" transform="translate(-859.118 830.464)"/><path d="m746.884-796.735c-.609.572-.75 1.515-.431 2.948.111.49.23 1.01.267 1.151a14.994 14.994 0 0 1 .3 2.413 13 13 0 0 1 -.23 2.153 7.758 7.758 0 0 1 -1.292 2.629 7.442 7.442 0 0 1 -2.77 1.968 11.424 11.424 0 0 1 -3.713.7l-.327-.022.906-.668a13.657 13.657 0 0 0 2.926-2.955 4.343 4.343 0 0 0 .839-2.391 2.539 2.539 0 0 0 -.059-.98l-.1-.23-1.374 1.337c-.757.742-1.574 1.492-1.819 1.678a29.014 29.014 0 0 1 -3.379 1.96 10.762 10.762 0 0 0 -3.267 2.116 7.308 7.308 0 0 0 -1.441 2.153 6.422 6.422 0 0 0 -.668 4.2l.119.653.178-.119c.1-.059.334-.2.527-.3s.394-.223.431-.253.46-.252.928-.49a31.146 31.146 0 0 1 7.351-2.539 9.418 9.418 0 0 0 3.861-1.6 11.827 11.827 0 0 0 4.025-4.166 8.392 8.392 0 0 0 .49-6.089c-.267-.869-1.025-3.2-1.418-4.366-.414-1.21-.459-1.262-.86-.891z" transform="translate(-702.865 817.446)"/></g></svg>