<svg height="56" viewBox="0 0 56 56" width="56" xmlns="http://www.w3.org/2000/svg" xmlns:xlink="http://www.w3.org/1999/xlink"><linearGradient id="a" gradientUnits="objectBoundingBox" x1=".5" x2=".5" y2="1"><stop offset="0" stop-color="#37a0f7"/><stop offset="1" stop-color="#3879bb"/></linearGradient><filter id="b" filterUnits="userSpaceOnUse" height="56" width="56" x="0" y="0"><feOffset dy="3"/><feGaussianBlur result="blur" stdDeviation="3"/><feFlood flood-opacity=".392"/><feComposite in2="blur" operator="in"/><feComposite in="SourceGraphic"/></filter><g filter="url(#b)" transform=""><circle cx="19" cy="19" fill="url(#a)" r="19" transform="translate(9 6)"/></g><path d="m8.031 15.75a.624.624 0 0 0 -.883 0l-1.635 1.635a.624.624 0 0 0 .883.882l1.635-1.635a.624.624 0 0 0 0-.882zm-4.431-4.435a.624.624 0 0 0 -.882 0l-1.64 1.635a.624.624 0 0 0 .882.883l1.64-1.633a.624.624 0 0 0 0-.883zm2.957 1.478a.624.624 0 0 0 -.883 0l-4.148 4.143a.624.624 0 0 0 .883.883l4.144-4.144a.624.624 0 0 0 -.001-.882zm12.757-11.975-5.914 18.097a.624.624 0 0 1 -1.133.12l-3.976-6.835a.624.624 0 0 1 .038-.686l1.428-1.926-1.922 1.428a.624.624 0 0 1 -.686.038l-6.839-3.977a.625.625 0 0 1 .12-1.132l18.097-5.914a.625.625 0 0 1 .787.787z" fill="#fff" transform="translate(17.999 15.001)"/></svg>