<svg xmlns="http://www.w3.org/2000/svg" width="19.398" height="19.775" viewBox="0 0 19.398 19.775">
    <defs>
        <style>
            .cls-1{fill:#3879bb}
        </style>
    </defs>
    <g id="upload" transform="translate(-2.892 -.157)">
        <g id="print" transform="translate(2.892 .157)">
            <path id="Контур_23" d="M16.556 4.982h-.53V2.9A2.873 2.873 0 0 0 13.184 0H6.213a2.873 2.873 0 0 0-2.841 2.9v2.082h-.53A2.873 2.873 0 0 0 0 7.879v4.635a2.873 2.873 0 0 0 2.841 2.9h.53v2.626a1.724 1.724 0 0 0 1.7 1.738h9.244a1.724 1.724 0 0 0 1.7-1.738v-2.629h.53a2.873 2.873 0 0 0 2.841-2.9V7.879a2.873 2.873 0 0 0-2.83-2.897zM4.508 2.9a1.724 1.724 0 0 1 1.7-1.738h6.971a1.724 1.724 0 0 1 1.7 1.738v2.082H4.508zm10.381 15.14a.575.575 0 0 1-.568.579H5.077a.575.575 0 0 1-.568-.579v-5.719h10.38zm3.372-5.523a1.724 1.724 0 0 1-1.7 1.738h-.53v-1.934h.341a.579.579 0 0 0 0-1.159H3.031a.579.579 0 0 0 0 1.159h.341v1.931h-.53a1.724 1.724 0 0 1-1.7-1.738V7.879a1.724 1.724 0 0 1 1.7-1.738h13.714a1.724 1.724 0 0 1 1.7 1.738z" class="cls-1"/>
            <path id="Контур_24" d="M204.5 353h-2.944a.552.552 0 0 0 0 1.1h2.944a.552.552 0 0 0 0-1.1z" class="cls-1" transform="translate(-193.325 -339.326)"/>
            <path id="Контур_25" d="M204.5 417h-2.944a.552.552 0 1 0 0 1.1h2.944a.552.552 0 1 0 0-1.1z" class="cls-1" transform="translate(-193.325 -400.721)"/>
            <path id="Контур_26" d="M67.319 193h-1.767a.552.552 0 1 0 0 1.1h1.767a.552.552 0 1 0 0-1.1z" class="cls-1" transform="translate(-62.608 -185.524)"/>
        </g>
    </g>
</svg>
