<svg fill="none" height="24" viewBox="0 0 24 24" width="24" xmlns="http://www.w3.org/2000/svg"><path clip-rule="evenodd" d="m9.77026 4.95137c0-.60863.53494-1.15572 1.27344-1.15572h1.9064c.7384 0 1.2734.54709 1.2734 1.15572v1.59331h-4.45324zm-1 1.59331v-1.59331c0-1.22448 1.04845-2.15572 2.27344-2.15572h1.9064c1.2249 0 2.2734.93124 2.2734 2.15572v1.59331h3.2745 2.502v1h-2.502v10.26802c0 1.9046-1.6438 3.3916-3.5971 3.3916h-5.80159c-1.95331 0-3.59711-1.487-3.59711-3.3916v-10.26802h-2.5022v-1h2.5022zm-2.26806 1h10.9958v10.26802c0 1.2887-1.1303 2.3916-2.5971 2.3916h-5.80159c-1.46681 0-2.59711-1.1029-2.59711-2.3916zm2.8634 2.40942v7.8824h1v-7.8824zm4.2688 7.8824v-7.8824h1v7.8824z" fill="#fff" fill-rule="evenodd"/></svg>