<svg height="23.601" viewBox="0 0 23.601 23.601" width="23.601" xmlns="http://www.w3.org/2000/svg"><path d="m23.6 5.836a.693.693 0 0 0 -.153-.37c-.034-.042.318.313-5.255-5.26a.7.7 0 0 0 -.492-.206h-15.627a2.077 2.077 0 0 0 -2.073 2.077v19.452a2.077 2.077 0 0 0 2.073 2.071h19.452a2.077 2.077 0 0 0 2.075-2.071c0-16.787 0-15.641 0-15.694zm-7.7-4.45v4.514a.692.692 0 0 1 -.691.691h-.876v-5.205zm-2.95 0v5.209h-6.405a.692.692 0 0 1 -.692-.695v-4.514zm2.95 13.414h-10.047v-.876a.692.692 0 0 1 .691-.691h8.666a.692.692 0 0 1 .691.691zm-10.047 7.421v-6.039h10.047v6.038zm16.364-.691a.692.692 0 0 1 -.691.691h-4.241v-8.3a2.077 2.077 0 0 0 -2.074-2.074h-8.666a2.077 2.077 0 0 0 -2.075 2.077v8.3h-2.4a.692.692 0 0 1 -.691-.691v-19.456a.692.692 0 0 1 .691-.691h2.4v4.514a2.077 2.077 0 0 0 2.075 2.077h8.665a2.077 2.077 0 0 0 2.075-2.077v-4.514h.128l4.8 4.8z" fill="#fff" transform="translate(.001 -.003)"/></svg>