<svg xmlns="http://www.w3.org/2000/svg" width="29.547" height="32" viewBox="0 0 29.547 32">
  <path id="Settings" d="M14.768,32c-.39,0-.789-.015-1.188-.044A3.49,3.49,0,0,1,11.3,30.891a3.967,3.967,0,0,1-1.07-2.185l-.127-.87A1.828,1.828,0,0,0,9.1,26.577c-.217-.116-.436-.243-.651-.377a2.089,2.089,0,0,0-1.086-.338,1.361,1.361,0,0,0-.509.093l-.82.326a4.018,4.018,0,0,1-1.476.283,3.577,3.577,0,0,1-3.008-1.55,16.135,16.135,0,0,1-1.2-2.066,3.491,3.491,0,0,1-.214-2.5,3.962,3.962,0,0,1,1.356-2.016l.7-.55a1.818,1.818,0,0,0,.584-1.5c0-.132-.005-.265-.005-.377s0-.245.005-.377a1.821,1.821,0,0,0-.584-1.5l-.7-.549A3.716,3.716,0,0,1,.352,9.052a16.065,16.065,0,0,1,1.2-2.066A3.576,3.576,0,0,1,4.555,5.436a4.023,4.023,0,0,1,1.476.282l.82.327a1.367,1.367,0,0,0,.509.093A2.085,2.085,0,0,0,8.446,5.8c.2-.128.424-.255.651-.377a1.826,1.826,0,0,0,1.011-1.258l.127-.871A3.966,3.966,0,0,1,11.3,1.109,3.49,3.49,0,0,1,13.58.044C13.967.015,14.366,0,14.768,0s.8.015,1.188.044a3.491,3.491,0,0,1,2.278,1.065A3.966,3.966,0,0,1,19.3,3.293l.126.871A1.83,1.83,0,0,0,20.44,5.423c.236.127.449.25.651.377a2.086,2.086,0,0,0,1.087.339,1.363,1.363,0,0,0,.508-.093l.82-.327a4.026,4.026,0,0,1,1.476-.282A3.578,3.578,0,0,1,27.99,6.987a16.064,16.064,0,0,1,1.2,2.066,3.717,3.717,0,0,1-1.142,4.52l-.7.549a1.819,1.819,0,0,0-.584,1.5c0,.126.005.25.005.377s0,.251-.005.377a1.816,1.816,0,0,0,.584,1.5l.7.55A3.964,3.964,0,0,1,29.4,20.444a3.49,3.49,0,0,1-.214,2.5,16.135,16.135,0,0,1-1.2,2.066,3.579,3.579,0,0,1-3.008,1.55,4.021,4.021,0,0,1-1.476-.283l-.82-.326a1.358,1.358,0,0,0-.508-.093,2.09,2.09,0,0,0-1.086.338c-.209.131-.428.258-.651.377a1.833,1.833,0,0,0-1.011,1.259l-.126.87a3.717,3.717,0,0,1-3.347,3.25C15.558,31.986,15.159,32,14.768,32ZM7.35,23.194a4.826,4.826,0,0,1,2.5.743c.137.083.318.192.5.292a4.425,4.425,0,0,1,2.389,3.226l.127.87a1.057,1.057,0,0,0,.9.974c.334.024.668.036.993.036s.658-.012.994-.036a1.057,1.057,0,0,0,.9-.974l.127-.87a4.421,4.421,0,0,1,2.388-3.226c.188-.1.37-.209.507-.292a4.816,4.816,0,0,1,2.5-.743,3.992,3.992,0,0,1,1.487.284l.819.327a1.312,1.312,0,0,0,.486.1.968.968,0,0,0,.81-.393,13.374,13.374,0,0,0,.994-1.721,1.054,1.054,0,0,0-.391-1.265l-.7-.551a4.416,4.416,0,0,1-1.6-3.677l0-.294,0-.3a4.416,4.416,0,0,1,1.6-3.677l.7-.55a1.055,1.055,0,0,0,.391-1.265,13.449,13.449,0,0,0-.994-1.722A.967.967,0,0,0,24.98,8.1a1.314,1.314,0,0,0-.487.1l-.819.327a4,4,0,0,1-1.488.283,4.809,4.809,0,0,1-2.5-.742c-.184-.113-.35-.208-.507-.292a4.425,4.425,0,0,1-2.388-3.226l-.127-.871a1.056,1.056,0,0,0-.9-.973c-.323-.024-.657-.036-.994-.036s-.671.012-.993.036a1.056,1.056,0,0,0-.9.973l-.127.871a4.428,4.428,0,0,1-2.389,3.226c-.155.083-.32.178-.5.292a4.819,4.819,0,0,1-2.5.742,4,4,0,0,1-1.488-.283L5.045,8.2a1.315,1.315,0,0,0-.487-.1.965.965,0,0,0-.809.392,13.188,13.188,0,0,0-.994,1.722,1.052,1.052,0,0,0,.391,1.265l.7.55a4.416,4.416,0,0,1,1.6,3.677l0,.3,0,.294a4.416,4.416,0,0,1-1.6,3.677l-.7.551a1.051,1.051,0,0,0-.391,1.265,13.117,13.117,0,0,0,.994,1.721.966.966,0,0,0,.81.393,1.312,1.312,0,0,0,.486-.1l.818-.327A3.993,3.993,0,0,1,7.35,23.194Zm7.418-.527A6.667,6.667,0,1,1,21.435,16,6.674,6.674,0,0,1,14.768,22.667Zm0-10.667a4,4,0,1,0,4,4A4,4,0,0,0,14.768,12Z" transform="translate(0.005)" fill="#fff"/>
</svg>
