<svg xmlns="http://www.w3.org/2000/svg" width="25.389" height="19.932" viewBox="0 0 25.389 19.932">
    <defs>
        <style>
            .cls-1{fill:#3879bb}
        </style>
    </defs>
    <g id="upload" transform="translate(0 -55.032)">
        <g id="Сгруппировать_4" transform="translate(0 55.032)">
            <g id="Сгруппировать_3">
                <path id="Контур_1" d="M21.154 61.636a8.727 8.727 0 0 0-17.168 1.492 4.76 4.76 0 0 0 .793 9.456h3.967V71H4.779a3.173 3.173 0 0 1 0-6.347.793.793 0 0 0 .793-.793 7.14 7.14 0 0 1 14.145-1.388.793.793 0 0 0 .674.635A3.967 3.967 0 0 1 19.853 71h-3.174v1.587h3.173a5.553 5.553 0 0 0 1.3-10.948z" class="cls-1" transform="translate(0 -55.032)"/>
                <path id="Контур_2" d="M184.208 249.242l-3.173 3.173 1.119 1.119 1.825-1.817v7.608h1.587v-7.608l1.817 1.817 1.119-1.119-3.173-3.173a.793.793 0 0 0-1.121 0z" class="cls-1" transform="translate(-172.059 -239.393)"/>
            </g>
        </g>
    </g>
</svg>
